<svg width="56" height="50" viewBox="0 0 56 50" fill="none" xmlns="http://www.w3.org/2000/svg">
<g clip-path="url(#clip0_148_272)">
<path d="M1.2913 36.175L19.7678 4.54346C22.1148 5.9252 33.9496 12.4748 35.8609 13.7204L17.3843 45.3537C15.3637 48.0232 -1.2687 40.2261 1.2913 36.1732V36.175Z" fill="#FBBC04"/>
<path d="M54.3774 36.1743L35.9009 4.54477C33.3179 0.246074 27.7548 -1.3161 23.1855 1.22281C18.6161 3.76173 17.2248 9.23086 19.8079 13.7215L38.2844 45.355C40.8674 49.6517 46.4307 51.2137 51 48.675C55.3696 46.1359 56.9605 40.4728 54.3774 36.178V36.1743Z" fill="#4285F4"/>
<path d="M9.28626 49.8973C14.4086 49.8973 18.561 45.848 18.561 40.8529C18.561 35.8579 14.4086 31.8086 9.28626 31.8086C4.16394 31.8086 0.0114746 35.8579 0.0114746 40.8529C0.0114746 45.848 4.16394 49.8973 9.28626 49.8973Z" fill="#34A853"/>
</g>
<defs>
<clipPath id="clip0_148_272">
<rect width="55.675" height="50" fill="white"/>
</clipPath>
</defs>
</svg>
